<svg width="1440" height="1024" viewBox="0 0 1440 1024" fill="none" xmlns="http://www.w3.org/2000/svg">
<g clip-path="url(#clip0)">
<rect width="1440" height="1024" fill="white"/>
<path fill-rule="evenodd" clip-rule="evenodd" d="M772.13 -383.067C893.787 -404.422 1033.71 -454.832 1136.36 -386.199C1239.95 -316.94 1197.93 -143.709 1275.69 -46.3883C1374.29 77.0123 1589.54 94.417 1639.97 244.062C1688.41 387.826 1621.07 562.671 1518.64 674.644C1418.58 784.028 1252.2 790.259 1108.12 825.456C996.957 852.613 886.078 846.411 772.13 857.009C645.257 868.809 516.008 939.445 397.967 891.505C278.269 842.893 231.853 702.411 148.533 603.749C46.426 482.841 -156.243 402.078 -148.801 244.062C-141.234 83.4037 57.338 5.76028 181.519 -96.5977C270.718 -170.121 370.961 -219.647 474.989 -270.104C571.975 -317.147 665.944 -364.428 772.13 -383.067Z" fill="url(#paint0_linear)"/>
</g>
<defs>
<linearGradient id="paint0_linear" x1="753.5" y1="-421" x2="754" y2="937.5" gradientUnits="userSpaceOnUse">
<stop stop-color="#0C2551"/>
<stop offset="1" stop-color="#0962FF"/>
</linearGradient>
<clipPath id="clip0">
<rect width="1440" height="1024" fill="white"/>
</clipPath>
</defs>
</svg>
