<svg width="609" height="611" viewBox="0 0 609 611" fill="none" xmlns="http://www.w3.org/2000/svg">
<g clip-path="url(#clip0)">
<path d="M58.565 514.714L53.2015 493.555C43.6917 489.523 33.9621 486.031 24.0592 483.096L23.3822 492.93L20.6366 482.096C8.35522 478.584 0 477.039 0 477.039C0 477.039 11.2831 519.967 34.9564 552.786L62.5378 557.633L41.1106 560.723C44.0884 564.307 47.2886 567.7 50.6922 570.883C85.1261 602.854 123.48 617.523 136.356 603.646C149.233 589.768 131.757 552.602 97.3234 520.634C86.6486 510.722 73.2388 502.768 59.8152 496.507L58.565 514.714Z" fill="#F2F2F2"/>
<path d="M109.573 491.731L115.916 470.844C109.859 462.476 103.335 454.456 96.3749 446.823L90.7137 454.891L93.9613 444.197C85.2611 434.844 78.9073 429.202 78.9073 429.202C78.9073 429.202 66.3856 471.785 69.6887 512.119L90.7955 530.529L70.8522 522.095C71.55 526.704 72.5369 531.264 73.8071 535.748C86.763 580.922 112.015 613.31 130.209 608.088C148.402 602.867 152.649 562.015 139.693 516.841C135.677 502.837 128.307 489.095 120.051 476.795L109.573 491.731Z" fill="#F2F2F2"/>
<path d="M424.957 144.746H421.611V53.0648C421.611 46.0963 420.239 39.1959 417.573 32.7578C414.907 26.3197 410.999 20.4699 406.073 15.5423C401.147 10.6148 395.299 6.70607 388.863 4.03932C382.427 1.37256 375.528 0 368.562 0H174.372C160.303 0 146.809 5.59074 136.861 15.5423C126.912 25.4939 121.323 38.9912 121.323 53.0648V556.045C121.323 563.014 122.695 569.914 125.361 576.352C128.027 582.79 131.934 588.64 136.861 593.568C141.787 598.495 147.635 602.404 154.071 605.071C160.507 607.737 167.406 609.11 174.372 609.11H368.562C382.631 609.11 396.124 603.519 406.073 593.567C416.021 583.616 421.61 570.119 421.61 556.045V210.007H424.956L424.957 144.746Z" fill="#E6E6E6"/>
<path d="M370.702 13.8005H345.356C346.522 16.6594 346.967 19.7612 346.652 22.8326C346.337 25.904 345.271 28.8508 343.549 31.4133C341.828 33.9758 339.502 36.0754 336.778 37.5271C334.054 38.9788 331.014 39.738 327.928 39.7379H216.679C213.592 39.7377 210.553 38.9783 207.829 37.5265C205.105 36.0747 202.78 33.9751 201.058 31.4126C199.337 28.8501 198.271 25.9035 197.956 22.8322C197.642 19.7609 198.086 16.6592 199.252 13.8005H175.577C165.07 13.8005 154.994 17.9756 147.564 25.4073C140.134 32.8391 135.96 42.9187 135.96 53.4288V555.679C135.96 566.189 140.134 576.268 147.564 583.7C154.994 591.132 165.07 595.307 175.577 595.307H370.702C381.209 595.307 391.286 591.132 398.716 583.7C406.145 576.268 410.319 566.189 410.319 555.679V53.428C410.319 42.918 406.145 32.8386 398.715 25.407C391.286 17.9755 381.209 13.8005 370.702 13.8005Z" fill="white"/>
<path d="M248.276 213.871C248.275 210.361 249.199 206.912 250.954 203.872C252.71 200.832 255.235 198.308 258.275 196.554C255.236 194.798 251.789 193.874 248.28 193.874C244.77 193.873 241.323 194.797 238.283 196.552C235.244 198.307 232.72 200.831 230.965 203.871C229.21 206.911 228.287 210.36 228.287 213.87C228.287 217.38 229.21 220.829 230.965 223.869C232.72 226.909 235.244 229.433 238.283 231.188C241.323 232.943 244.77 233.867 248.28 233.867C251.789 233.866 255.236 232.942 258.275 231.186C255.235 229.433 252.71 226.909 250.955 223.87C249.199 220.83 248.275 217.382 248.276 213.871Z" fill="#CCCCCC"/>
<path d="M273.407 213.871C273.406 210.361 274.33 206.912 276.085 203.872C277.841 200.832 280.366 198.308 283.406 196.554C280.367 194.798 276.92 193.874 273.41 193.874C269.901 193.873 266.453 194.797 263.414 196.552C260.375 198.307 257.851 200.831 256.096 203.871C254.341 206.911 253.417 210.36 253.417 213.87C253.417 217.38 254.341 220.829 256.096 223.869C257.851 226.909 260.375 229.433 263.414 231.188C266.453 232.943 269.901 233.867 273.41 233.867C276.92 233.866 280.367 232.942 283.406 231.186C280.366 229.433 277.841 226.909 276.086 223.87C274.33 220.83 273.406 217.382 273.407 213.871Z" fill="#CCCCCC"/>
<path d="M297.967 233.867C309.008 233.867 317.958 224.914 317.958 213.87C317.958 202.827 309.008 193.874 297.967 193.874C286.927 193.874 277.977 202.827 277.977 213.87C277.977 224.914 286.927 233.867 297.967 233.867Z" fill="#0962FF"/>
<path d="M331.377 276.328H214.866C213.757 276.326 212.694 275.885 211.909 275.1C211.125 274.316 210.684 273.252 210.683 272.143V155.598C210.684 154.489 211.125 153.425 211.909 152.641C212.694 151.856 213.757 151.415 214.866 151.413H331.377C332.486 151.415 333.549 151.856 334.334 152.641C335.118 153.425 335.559 154.489 335.56 155.598V272.143C335.559 273.252 335.118 274.316 334.334 275.1C333.549 275.885 332.486 276.326 331.377 276.328ZM214.866 153.088C214.201 153.089 213.563 153.354 213.092 153.825C212.622 154.295 212.357 154.934 212.356 155.599V272.143C212.357 272.809 212.622 273.447 213.092 273.918C213.563 274.389 214.201 274.654 214.866 274.654H331.377C332.042 274.654 332.68 274.389 333.151 273.918C333.621 273.447 333.886 272.809 333.887 272.143V155.599C333.886 154.934 333.621 154.295 333.151 153.825C332.68 153.354 332.042 153.089 331.377 153.088H214.866Z" fill="#CCCCCC"/>
<path d="M357.391 365.664H178.7V367.338H357.391V365.664Z" fill="#CCCCCC"/>
<path d="M184.343 355.212C187.46 355.212 189.986 352.685 189.986 349.567C189.986 346.45 187.46 343.922 184.343 343.922C181.226 343.922 178.7 346.45 178.7 349.567C178.7 352.685 181.226 355.212 184.343 355.212Z" fill="#0962FF"/>
<path d="M357.391 422.109H178.7V423.783H357.391V422.109Z" fill="#CCCCCC"/>
<path d="M184.343 411.658C187.46 411.658 189.986 409.131 189.986 406.013C189.986 402.895 187.46 400.368 184.343 400.368C181.226 400.368 178.7 402.895 178.7 406.013C178.7 409.131 181.226 411.658 184.343 411.658Z" fill="#0962FF"/>
<path d="M354.121 486.386H297.65C296.674 486.385 295.739 485.997 295.05 485.307C294.36 484.617 293.972 483.682 293.971 482.706V462.907C293.972 461.932 294.36 460.996 295.05 460.306C295.739 459.616 296.674 459.228 297.65 459.227H354.121C355.097 459.228 356.032 459.616 356.722 460.306C357.412 460.996 357.8 461.932 357.801 462.907V482.706C357.8 483.682 357.412 484.617 356.722 485.307C356.032 485.997 355.097 486.385 354.121 486.386Z" fill="#0962FF"/>
<path d="M202.751 355.212C205.868 355.212 208.394 352.685 208.394 349.567C208.394 346.45 205.868 343.922 202.751 343.922C199.634 343.922 197.108 346.45 197.108 349.567C197.108 352.685 199.634 355.212 202.751 355.212Z" fill="#0962FF"/>
<path d="M221.159 355.212C224.275 355.212 226.802 352.685 226.802 349.567C226.802 346.45 224.275 343.922 221.159 343.922C218.042 343.922 215.516 346.45 215.516 349.567C215.516 352.685 218.042 355.212 221.159 355.212Z" fill="#0962FF"/>
<path d="M202.751 411.658C205.868 411.658 208.394 409.131 208.394 406.013C208.394 402.895 205.868 400.368 202.751 400.368C199.634 400.368 197.108 402.895 197.108 406.013C197.108 409.131 199.634 411.658 202.751 411.658Z" fill="#0962FF"/>
<path d="M221.159 411.658C224.275 411.658 226.802 409.131 226.802 406.013C226.802 402.895 224.275 400.368 221.159 400.368C218.042 400.368 215.516 402.895 215.516 406.013C215.516 409.131 218.042 411.658 221.159 411.658Z" fill="#0962FF"/>
<path d="M606.725 611H19.6882C18.4315 611 17.4136 610.553 17.4136 610.004C17.4136 609.454 18.4315 609.007 19.6882 609.007H606.725C607.981 609.007 609 609.453 609 610.004C609 610.554 607.981 611 606.725 611Z" fill="#3F3D56"/>
<path d="M461.689 400.308C462.09 400.491 462.476 400.707 462.843 400.952L499.514 385.296L500.823 375.632L515.476 375.543L514.611 397.705L466.208 410.509C466.106 410.846 465.984 411.176 465.842 411.498C465.142 412.991 464.017 414.245 462.607 415.101C461.198 415.957 459.566 416.377 457.919 416.309C456.271 416.241 454.68 415.687 453.346 414.717C452.012 413.748 450.994 412.405 450.42 410.859C449.846 409.312 449.742 407.631 450.12 406.025C450.498 404.42 451.343 402.962 452.547 401.835C453.751 400.707 455.261 399.961 456.887 399.689C458.514 399.418 460.184 399.633 461.689 400.308Z" fill="white"/>
<path d="M520.805 601.14H510.781L506.013 562.465L520.807 562.466L520.805 601.14Z" fill="white"/>
<path d="M503.621 598.275H522.953V610.45H491.45C491.45 607.221 492.732 604.124 495.015 601.841C497.297 599.558 500.393 598.275 503.621 598.275Z" fill="#0C2551"/>
<path d="M559.789 598.307L549.814 599.29L541.277 561.27L556 559.819L559.789 598.307Z" fill="white"/>
<path d="M542.408 597.141L561.647 595.245L562.84 607.362L531.488 610.451C531.331 608.86 531.49 607.253 531.953 605.723C532.417 604.193 533.178 602.769 534.192 601.534C535.206 600.298 536.454 599.273 537.863 598.52C539.273 597.766 540.817 597.297 542.408 597.141Z" fill="#0C2551"/>
<path d="M523.596 334.613C534.686 334.613 543.677 325.619 543.677 314.525C543.677 303.431 534.686 294.438 523.596 294.438C512.505 294.438 503.514 303.431 503.514 314.525C503.514 325.619 512.505 334.613 523.596 334.613Z" fill="white"/>
<path d="M508.541 593.319C507.68 593.321 506.845 593.019 506.185 592.466C505.525 591.912 505.081 591.144 504.932 590.295C499.743 561.486 482.784 467.285 482.379 464.676C482.37 464.616 482.365 464.555 482.366 464.495V457.471C482.365 457.215 482.445 456.966 482.594 456.758L484.835 453.619C484.941 453.468 485.081 453.344 485.243 453.255C485.405 453.166 485.585 453.116 485.77 453.108C498.542 452.509 540.373 450.753 542.394 453.279C544.424 455.817 543.707 463.508 543.542 465.024L543.55 465.182L562.344 585.402C562.491 586.361 562.255 587.339 561.686 588.125C561.118 588.911 560.263 589.441 559.306 589.602L547.568 591.536C546.694 591.677 545.799 591.499 545.044 591.034C544.29 590.57 543.728 589.851 543.459 589.007C539.829 577.403 527.656 538.367 523.437 523.262C523.41 523.166 523.35 523.084 523.267 523.029C523.184 522.975 523.084 522.952 522.986 522.966C522.888 522.98 522.798 523.029 522.733 523.105C522.669 523.18 522.634 523.276 522.635 523.376C522.846 537.774 523.355 574.511 523.531 587.198L523.55 588.565C523.558 589.49 523.218 590.385 522.599 591.072C521.979 591.758 521.124 592.188 520.204 592.275L508.885 593.304C508.77 593.314 508.655 593.319 508.541 593.319Z" fill="#0C2551"/>
<path d="M510.851 342.511C507.346 344.595 505.249 348.424 504.046 352.321C501.818 359.536 500.477 366.995 500.052 374.534L498.78 397.107L483.037 456.949C496.682 468.498 504.553 465.873 522.921 456.427C541.289 446.98 543.388 459.576 543.388 459.576L547.061 408.658L552.308 353.017C551.131 351.599 549.797 350.316 548.334 349.195C543.483 345.422 537.84 342.799 531.829 341.525C525.818 340.251 519.596 340.357 513.632 341.838L510.851 342.511Z" fill="#0962FF"/>
<path d="M505.737 412.394C506.161 412.553 506.571 412.746 506.964 412.97L543.224 394.816L543.826 384.98L558.783 383.949L559.585 406.368L511.128 422.398C510.732 424.095 509.829 425.632 508.539 426.804C507.249 427.976 505.633 428.727 503.906 428.957C502.178 429.188 500.422 428.887 498.87 428.095C497.318 427.302 496.043 426.056 495.217 424.522C494.39 422.987 494.049 421.238 494.241 419.505C494.433 417.772 495.147 416.139 496.289 414.823C497.431 413.506 498.947 412.569 500.634 412.135C502.322 411.701 504.102 411.791 505.737 412.394Z" fill="white"/>
<path d="M552.046 353.272C560.967 356.422 562.539 390.545 562.539 390.545C552.043 384.77 539.448 394.22 539.448 394.22C539.448 394.22 536.824 385.295 533.676 373.747C532.725 370.498 532.611 367.062 533.345 363.758C534.079 360.454 535.637 357.389 537.874 354.849C537.874 354.849 543.125 350.12 552.046 353.272Z" fill="#0962FF"/>
<path d="M541.602 319.837C539.1 317.835 535.686 321.475 535.686 321.475L533.684 303.454C533.684 303.454 521.174 304.953 513.168 302.954C505.161 300.955 503.91 310.213 503.91 310.213C503.497 306.473 503.414 302.704 503.66 298.95C504.16 294.445 510.666 289.94 522.175 286.936C533.684 283.933 539.689 296.948 539.689 296.948C547.697 300.952 544.104 321.84 541.602 319.837Z" fill="#0C2551"/>
</g>
<defs>
<clipPath id="clip0">
<rect width="609" height="611" fill="white"/>
</clipPath>
</defs>
</svg>
