<svg width="703" height="530" viewBox="0 0 703 530" fill="none" xmlns="http://www.w3.org/2000/svg">
<g clip-path="url(#clip0)">
<path d="M529.067 125.948H526.157V46.1721C526.157 33.9265 521.296 22.1824 512.643 13.5235C503.99 4.86456 492.254 1.54515e-05 480.017 1.65987e-10H311.117C305.058 -1.62577e-05 299.058 1.19424 293.46 3.51459C287.862 5.83494 282.775 9.23593 278.491 13.5234C274.206 17.8109 270.808 22.9008 268.489 28.5027C266.17 34.1045 264.977 40.1085 264.977 46.1719V483.828C264.977 489.891 266.17 495.895 268.489 501.497C270.808 507.099 274.206 512.189 278.491 516.477C282.775 520.764 287.862 524.165 293.46 526.485C299.058 528.806 305.058 530 311.117 530H480.017C492.254 530 503.99 525.136 512.643 516.477C521.296 507.818 526.157 496.074 526.157 483.828V182.734H529.067L529.067 125.948Z" fill="#011111"/>
<path d="M481.878 12.0124H459.831C460.845 14.4998 461.232 17.1986 460.958 19.8709C460.684 22.5433 459.758 25.1072 458.26 27.3369C456.763 29.5665 454.741 31.3934 452.371 32.6567C450.002 33.92 447.359 34.5808 444.674 34.5811H347.914C345.229 34.5809 342.586 33.92 340.217 32.6567C337.848 31.3935 335.825 29.5665 334.328 27.3369C332.831 25.1072 331.904 22.5433 331.63 19.8709C331.356 17.1986 331.743 14.4998 332.757 12.0124H312.165C303.027 12.0124 294.262 15.6452 287.8 22.1115C281.338 28.5779 277.708 37.3482 277.708 46.4931V483.507C277.708 488.035 278.599 492.519 280.331 496.702C282.063 500.886 284.601 504.687 287.8 507.889C291 511.09 294.798 513.63 298.979 515.363C303.159 517.096 307.64 517.988 312.165 517.988H481.878C486.403 517.988 490.884 517.096 495.065 515.363C499.245 513.63 503.044 511.09 506.243 507.889C509.443 504.687 511.981 500.886 513.713 496.702C515.444 492.519 516.336 488.035 516.336 483.507V483.507V46.4931C516.336 41.965 515.444 37.4813 513.713 33.2979C511.981 29.1145 509.443 25.3134 506.243 22.1115C503.044 18.9097 499.245 16.3699 495.065 14.6371C490.884 12.9042 486.403 12.0124 481.878 12.0124V12.0124Z" fill="white"/>
<path d="M432.177 201.511C449.057 201.511 462.742 200.207 462.742 198.598C462.742 196.989 449.057 195.685 432.177 195.685C415.296 195.685 401.611 196.989 401.611 198.598C401.611 200.207 415.296 201.511 432.177 201.511Z" fill="#E6E6E6"/>
<path d="M703 72.7283H421.616V165.165H432.275V189.341L456.434 165.165H703V72.7283Z" fill="#011111"/>
<path d="M580.887 104.031H452.935V107.917H580.887V104.031Z" fill="white"/>
<path d="M675.945 117.473H452.935V121.358H675.945V117.473Z" fill="white"/>
<path d="M675.727 130.915H452.935V134.8H675.727V130.915Z" fill="white"/>
<path d="M631.114 351.529H406.504V425.316H415.012V444.613L434.296 425.316H631.114V351.529Z" fill="#011111"/>
<path d="M533.639 376.516H431.503V379.618H533.639V376.516Z" fill="white"/>
<path d="M609.518 387.246H431.503V390.348H609.518V387.246Z" fill="white"/>
<path d="M609.344 397.976H431.503V401.077H609.344V397.976Z" fill="white"/>
<path d="M414.933 454.328C428.408 454.328 439.332 453.287 439.332 452.003C439.332 450.719 428.408 449.678 414.933 449.678C401.459 449.678 390.535 450.719 390.535 452.003C390.535 453.287 401.459 454.328 414.933 454.328Z" fill="#E6E6E6"/>
<path d="M347.759 309.291C364.639 309.291 378.324 307.987 378.324 306.378C378.324 304.769 364.639 303.465 347.759 303.465C330.878 303.465 317.193 304.769 317.193 306.378C317.193 307.987 330.878 309.291 347.759 309.291Z" fill="#E6E6E6"/>
<path d="M160.42 217.668H358.299V282.673H350.803V299.674L333.814 282.673H160.42V217.668Z" fill="#011111"/>
<path d="M270.926 239.181H180.945V241.914H270.926V239.181Z" fill="white"/>
<path d="M337.774 248.634H180.945V251.366H337.774V248.634Z" fill="white"/>
<path d="M337.62 258.087H180.945V260.819H337.62V258.087Z" fill="white"/>
</g>
<defs>
<clipPath id="clip0">
<rect width="703" height="530" fill="white"/>
</clipPath>
</defs>
</svg>
