<svg width="53" height="38" viewBox="0 0 53 38" fill="none" xmlns="http://www.w3.org/2000/svg">
<path d="M23.675 9.5C23.675 13.9561 20.164 17.5 15.9 17.5C11.636 17.5 8.125 13.9561 8.125 9.5C8.125 5.04388 11.636 1.5 15.9 1.5C20.164 1.5 23.675 5.04388 23.675 9.5ZM15.9 24.5714C18.0633 24.5714 20.0899 24.0606 21.9127 23.2143H22.26C26.6648 23.2143 30.3 26.8854 30.3 31.4857V33.9286C30.3 35.382 29.1574 36.5 27.825 36.5H3.975C2.64259 36.5 1.5 35.382 1.5 33.9286V31.4857C1.5 26.8854 5.13524 23.2143 9.54 23.2143H9.88853C11.7154 24.0596 13.7346 24.5714 15.9 24.5714ZM46.2 10.8571C46.2 14.5583 43.2769 17.5 39.75 17.5C36.2231 17.5 33.3 14.5583 33.3 10.8571C33.3 7.15594 36.2231 4.21429 39.75 4.21429C43.2769 4.21429 46.2 7.15594 46.2 10.8571ZM39.75 23.8929C41.1566 23.8929 42.4627 23.6162 43.6613 23.2143H43.725C47.989 23.2143 51.5 26.7582 51.5 31.2143C51.5 32.6677 50.3574 33.7857 49.025 33.7857H35.95V31.4857C35.95 28.5424 35.0355 25.8284 33.5108 23.5855C34.2325 23.3458 34.9896 23.2143 35.775 23.2143H35.8387C37.0373 23.6162 38.3434 23.8929 39.75 23.8929Z" stroke="#5C5C5C" stroke-width="3"/>
</svg>
