<svg width="630" height="475" viewBox="0 0 630 475" fill="none" xmlns="http://www.w3.org/2000/svg">
<g clip-path="url(#clip0)">
<path d="M474.128 112.878H471.52V41.3806C471.52 30.4058 467.164 19.8805 459.41 12.1201C451.655 4.35975 441.138 1.38481e-05 430.171 1.48762e-10H278.81C273.38 -1.45706e-05 268.003 1.07031 262.987 3.14987C257.97 5.22943 253.412 8.27749 249.572 12.12C245.732 15.9626 242.686 20.5243 240.608 25.5448C238.53 30.5654 237.461 35.9463 237.461 41.3805V433.619C237.461 439.054 238.53 444.435 240.608 449.455C242.686 454.476 245.732 459.037 249.572 462.88C253.411 466.722 257.97 469.771 262.986 471.85C268.003 473.93 273.38 475 278.81 475H430.171C441.138 475 451.655 470.64 459.409 462.88C467.164 455.12 471.52 444.594 471.52 433.62V163.771H474.128L474.128 112.878Z" fill="#3F3D56"/>
<path d="M431.84 10.7658H412.082C412.991 12.9951 413.338 15.4138 413.092 17.8088C412.847 20.2039 412.016 22.5017 410.674 24.5C409.332 26.4983 407.52 28.1356 405.397 29.2678C403.274 30.4 400.905 30.9923 398.499 30.9924H311.786C309.381 30.9923 307.012 30.4 304.889 29.2678C302.765 28.1356 300.953 26.4983 299.611 24.5C298.269 22.5018 297.439 20.2039 297.193 17.8088C296.948 15.4138 297.295 12.9951 298.203 10.7658H279.75C271.56 10.7658 263.706 14.0216 257.915 19.8169C252.124 25.6123 248.871 33.4725 248.871 41.6683V433.332C248.871 437.39 249.669 441.408 251.221 445.158C252.773 448.907 255.047 452.314 257.915 455.183C260.782 458.053 264.186 460.329 267.933 461.882C271.679 463.435 275.695 464.234 279.75 464.234H431.84C435.895 464.234 439.91 463.435 443.657 461.882C447.403 460.329 450.807 458.053 453.675 455.183C456.542 452.314 458.816 448.907 460.368 445.158C461.92 441.408 462.719 437.39 462.719 433.332V433.332V41.6683C462.719 37.6101 461.92 33.5917 460.368 29.8424C458.816 26.0932 456.542 22.6865 453.675 19.8169C450.807 16.9474 447.403 14.6711 443.657 13.1181C439.91 11.5651 435.895 10.7658 431.84 10.7658V10.7658Z" fill="white"/>
<path d="M387.3 180.599C402.427 180.599 414.691 179.431 414.691 177.989C414.691 176.547 402.427 175.378 387.3 175.378C372.172 175.378 359.908 176.547 359.908 177.989C359.908 179.431 372.172 180.599 387.3 180.599Z" fill="#E6E6E6"/>
<path d="M630 65.181H377.835V148.025H387.387V169.693L409.037 148.025H630V65.181Z" fill="#6C63FF"/>
<path d="M520.568 93.2352H405.902V96.7177H520.568V93.2352Z" fill="white"/>
<path d="M605.755 105.282H405.902V108.765H605.755V105.282Z" fill="white"/>
<path d="M605.559 117.329H405.902V120.812H605.559V117.329Z" fill="white"/>
<path d="M565.579 315.05H364.292V381.179H371.917V398.474L389.199 381.179H565.579V315.05Z" fill="#6C63FF"/>
<path d="M478.226 337.444H386.695V340.224H478.226V337.444Z" fill="white"/>
<path d="M546.225 347.06H386.695V349.84H546.225V347.06Z" fill="white"/>
<path d="M546.069 356.676H386.695V359.456H546.069V356.676Z" fill="white"/>
<path d="M371.846 407.181C383.922 407.181 393.711 406.248 393.711 405.097C393.711 403.946 383.922 403.013 371.846 403.013C359.771 403.013 349.982 403.946 349.982 405.097C349.982 406.248 359.771 407.181 371.846 407.181Z" fill="#E6E6E6"/>
<path d="M311.647 277.195C326.775 277.195 339.039 276.026 339.039 274.584C339.039 273.142 326.775 271.973 311.647 271.973C296.519 271.973 284.256 273.142 284.256 274.584C284.256 276.026 296.519 277.195 311.647 277.195Z" fill="#E6E6E6"/>
<path d="M143.762 195.08H321.093V253.339H314.376V268.576L299.151 253.339H143.762V195.08Z" fill="#6C63FF"/>
<path d="M242.793 214.36H162.156V216.809H242.793V214.36Z" fill="white"/>
<path d="M302.699 222.832H162.156V225.281H302.699V222.832Z" fill="white"/>
<path d="M302.561 231.304H162.156V233.753H302.561V231.304Z" fill="white"/>
</g>
<defs>
<clipPath id="clip0">
<rect width="630" height="475" fill="white"/>
</clipPath>
</defs>
</svg>
